<svg width="2039" height="350" viewBox="0 0 2039 350" fill="none" xmlns="http://www.w3.org/2000/svg">
<path d="M787 18H1187V268H787V18Z" fill="#1A1B20"/>
<path fill-rule="evenodd" clip-rule="evenodd" d="M1186 19H788V267H1186V19ZM787 18V268H1187V18H787Z" fill="#3F434E"/>
<path d="M807 38H847V48H807V38Z" fill="#1A1B20"/>
<path fill-rule="evenodd" clip-rule="evenodd" d="M846 39H808V47H846V39ZM807 38V48H847V38H807Z" fill="#3F434E"/>
<path d="M807 58H847V68H807V58Z" fill="#1A1B20"/>
<path fill-rule="evenodd" clip-rule="evenodd" d="M846 59H808V67H846V59ZM807 58V68H847V58H807Z" fill="#98D358"/>
<path d="M857 38H1087V48H857V38Z" fill="#1A1B20"/>
<path fill-rule="evenodd" clip-rule="evenodd" d="M1086 39H858V47H1086V39ZM857 38V48H1087V38H857Z" fill="#3F434E"/>
<path d="M857 58H1107V68H857V58Z" fill="#1A1B20"/>
<path fill-rule="evenodd" clip-rule="evenodd" d="M1106 59H858V67H1106V59ZM857 58V68H1107V58H857Z" fill="#3F434E"/>
<path d="M807 78H847V88H807V78Z" fill="#1A1B20"/>
<path fill-rule="evenodd" clip-rule="evenodd" d="M846 79H808V87H846V79ZM807 78V88H847V78H807Z" fill="#3F434E"/>
<path d="M857 78H1037V88H857V78Z" fill="#1A1B20"/>
<path fill-rule="evenodd" clip-rule="evenodd" d="M1036 79H858V87H1036V79ZM857 78V88H1037V78H857Z" fill="#3F434E"/>
<path d="M807 98H847V108H807V98Z" fill="#1A1B20"/>
<path fill-rule="evenodd" clip-rule="evenodd" d="M846 99H808V107H846V99ZM807 98V108H847V98H807Z" fill="#3F434E"/>
<path d="M857 98H1157V108H857V98Z" fill="#1A1B20"/>
<path fill-rule="evenodd" clip-rule="evenodd" d="M1156 99H858V107H1156V99ZM857 98V108H1157V98H857Z" fill="#3F434E"/>
<path d="M807 118H847V128H807V118Z" fill="#1A1B20"/>
<path fill-rule="evenodd" clip-rule="evenodd" d="M846 119H808V127H846V119ZM807 118V128H847V118H807Z" fill="#3F434E"/>
<path d="M857 118H1087V128H857V118Z" fill="#1A1B20"/>
<path fill-rule="evenodd" clip-rule="evenodd" d="M1086 119H858V127H1086V119ZM857 118V128H1087V118H857Z" fill="#3F434E"/>
<path d="M807 138H847V148H807V138Z" fill="#1A1B20"/>
<path fill-rule="evenodd" clip-rule="evenodd" d="M846 139H808V147H846V139ZM807 138V148H847V138H807Z" fill="#3F434E"/>
<path d="M857 138H1107V148H857V138Z" fill="#1A1B20"/>
<path fill-rule="evenodd" clip-rule="evenodd" d="M1106 139H858V147H1106V139ZM857 138V148H1107V138H857Z" fill="#3F434E"/>
<path d="M807 158H847V168H807V158Z" fill="#1A1B20"/>
<path fill-rule="evenodd" clip-rule="evenodd" d="M846 159H808V167H846V159ZM807 158V168H847V158H807Z" fill="#3F434E"/>
<path d="M857 158H1037V168H857V158Z" fill="#1A1B20"/>
<path fill-rule="evenodd" clip-rule="evenodd" d="M1036 159H858V167H1036V159ZM857 158V168H1037V158H857Z" fill="#3F434E"/>
<path d="M807 178H847V188H807V178Z" fill="#1A1B20"/>
<path fill-rule="evenodd" clip-rule="evenodd" d="M846 179H808V187H846V179ZM807 178V188H847V178H807Z" fill="#3F434E"/>
<path d="M857 178H1097V188H857V178Z" fill="#1A1B20"/>
<path fill-rule="evenodd" clip-rule="evenodd" d="M1096 179H858V187H1096V179ZM857 178V188H1097V178H857Z" fill="#3F434E"/>
<path d="M807 198H847V208H807V198Z" fill="#1A1B20"/>
<path fill-rule="evenodd" clip-rule="evenodd" d="M846 199H808V207H846V199ZM807 198V208H847V198H807Z" fill="#3F434E"/>
<path d="M857 198H1007V208H857V198Z" fill="#1A1B20"/>
<path fill-rule="evenodd" clip-rule="evenodd" d="M1006 199H858V207H1006V199ZM857 198V208H1007V198H857Z" fill="#3F434E"/>
<path d="M807 218H847V228H807V218Z" fill="#1A1B20"/>
<path fill-rule="evenodd" clip-rule="evenodd" d="M846 219H808V227H846V219ZM807 218V228H847V218H807Z" fill="#3F434E"/>
<path d="M857 218H1067V228H857V218Z" fill="#1A1B20"/>
<path fill-rule="evenodd" clip-rule="evenodd" d="M1066 219H858V227H1066V219ZM857 218V228H1067V218H857Z" fill="#3F434E"/>
<path d="M1057 146H1317V286H1057V146Z" fill="#1A1B20"/>
<path fill-rule="evenodd" clip-rule="evenodd" d="M1316 147H1058V285H1316V147ZM1057 146V286H1317V146H1057Z" fill="#3F434E"/>
<path d="M1077 320H1297V330H1077V320Z" fill="#1A1B20"/>
<path fill-rule="evenodd" clip-rule="evenodd" d="M1296 321H1078V329H1296V321ZM1077 320V330H1297V320H1077Z" fill="#3F434E"/>
<path d="M1077 256H1087V266H1077V256Z" fill="#1A1B20"/>
<path fill-rule="evenodd" clip-rule="evenodd" d="M1086 257H1078V265H1086V257ZM1077 256V266H1087V256H1077Z" fill="#3F434E"/>
<path d="M1287 266H1297V268H1287V266Z" fill="#1A1B20"/>
<path fill-rule="evenodd" clip-rule="evenodd" d="M1287 266V268H1297V266H1287Z" fill="#3F434E"/>
<path d="M1287 256H1297V258H1287V256Z" fill="#1A1B20"/>
<path fill-rule="evenodd" clip-rule="evenodd" d="M1287 256V258H1297V256H1287Z" fill="#3F434E"/>
<path d="M1287 246H1297V248H1287V246Z" fill="#1A1B20"/>
<path fill-rule="evenodd" clip-rule="evenodd" d="M1287 246V248H1297V246H1287Z" fill="#3F434E"/>
<path d="M1287 236H1297V238H1287V236Z" fill="#1A1B20"/>
<path fill-rule="evenodd" clip-rule="evenodd" d="M1287 236V238H1297V236H1287Z" fill="#3F434E"/>
<path d="M1167 210H1207V330H1167V210Z" fill="#1A1B20"/>
<path fill-rule="evenodd" clip-rule="evenodd" d="M1206 211H1168V329H1206V211ZM1167 210V330H1207V210H1167Z" fill="#3F434E"/>
<path fill-rule="evenodd" clip-rule="evenodd" d="M617 320C625.284 320 632 313.284 632 305C632 296.716 625.284 290 617 290C608.716 290 602 296.716 602 305C602 313.284 608.716 320 617 320Z" fill="#1A1B20"/>
<path fill-rule="evenodd" clip-rule="evenodd" d="M617 319C624.732 319 631 312.732 631 305C631 297.268 624.732 291 617 291C609.268 291 603 297.268 603 305C603 312.732 609.268 319 617 319ZM632 305C632 313.284 625.284 320 617 320C608.716 320 602 313.284 602 305C602 296.716 608.716 290 617 290C625.284 290 632 296.716 632 305Z" fill="#3F434E"/>
<path d="M617 280H657V330H617V280Z" fill="#1A1B20"/>
<path fill-rule="evenodd" clip-rule="evenodd" d="M656 281H618V329H656V281ZM617 280V330H657V280H617Z" fill="#3F434E"/>
<path d="M627 270H637V272H627V270Z" fill="#3F434E"/>
<path d="M627 263H637V265H627V263Z" fill="#3F434E"/>
<path d="M627 256H637V258H627V256Z" fill="#3F434E"/>
<path d="M817 280H857V330H817V280Z" fill="#1A1B20"/>
<path fill-rule="evenodd" clip-rule="evenodd" d="M856 281H818V329H856V281ZM817 280V330H857V280H817Z" fill="#3F434E"/>
<path d="M687 118H987V298H687V118Z" fill="#1A1B20"/>
<path fill-rule="evenodd" clip-rule="evenodd" d="M986 119H688V297H986V119ZM687 118V298H987V118H687Z" fill="#3F434E"/>
<path d="M697 128H977V288H697V128Z" fill="#1A1B20"/>
<path fill-rule="evenodd" clip-rule="evenodd" d="M976 129H698V287H976V129ZM697 128V288H977V128H697Z" fill="#3F434E"/>
<path d="M697 320H977V330H697V320Z" fill="#1A1B20"/>
<path fill-rule="evenodd" clip-rule="evenodd" d="M976 321H698V329H976V321ZM697 320V330H977V320H697Z" fill="#3F434E"/>
<path d="M717 148H957V268H717V148Z" fill="#1A1B20"/>
<path fill-rule="evenodd" clip-rule="evenodd" d="M956 149H718V267H956V149ZM717 148V268H957V148H717Z" fill="#3F434E"/>
<path d="M717 148H757V268H717V148Z" fill="#1A1B20"/>
<path fill-rule="evenodd" clip-rule="evenodd" d="M756 149H718V267H756V149ZM717 148V268H757V148H717Z" fill="#3F434E"/>
<path d="M717 148H757V178H717V148Z" fill="#1A1B20"/>
<path fill-rule="evenodd" clip-rule="evenodd" d="M756 149H718V177H756V149ZM717 148V178H757V148H717Z" fill="#3F434E"/>
<path d="M917 148H957V210H917V148Z" fill="#1A1B20"/>
<path fill-rule="evenodd" clip-rule="evenodd" d="M956 149H918V209H956V149ZM917 148V210H957V148H917Z" fill="#3F434E"/>
<path d="M917 208H957V268H917V208Z" fill="#1A1B20"/>
<path fill-rule="evenodd" clip-rule="evenodd" d="M956 209H918V267H956V209ZM917 208V268H957V208H917Z" fill="#3F434E"/>
<path d="M757 150H917V266H757V150Z" fill="#1A1B20"/>
<mask id="mask0" mask-type="alpha" maskUnits="userSpaceOnUse" x="757" y="150" width="160" height="116">
<path d="M757 150H917V266H757V150Z" fill="white"/>
</mask>
<g mask="url(#mask0)">
<path d="M767 158H807V178H767V158Z" fill="#1A1B20"/>
<path fill-rule="evenodd" clip-rule="evenodd" d="M805 160H769V176H805V160ZM767 158V178H807V158H767Z" fill="#31B5F7"/>
<path d="M817 158H857V178H817V158Z" fill="#1A1B20"/>
<path fill-rule="evenodd" clip-rule="evenodd" d="M855 160H819V176H855V160ZM817 158V178H857V158H817Z" fill="#31B5F7"/>
<path d="M867 158H907V178H867V158Z" fill="#1A1B20"/>
<path fill-rule="evenodd" clip-rule="evenodd" d="M905 160H869V176H905V160ZM867 158V178H907V158H867Z" fill="#31B5F7"/>
<path d="M767 188H807V208H767V188Z" fill="#1A1B20"/>
<path fill-rule="evenodd" clip-rule="evenodd" d="M805 190H769V206H805V190ZM767 188V208H807V188H767Z" fill="#98D358"/>
<path d="M817 188H857V208H817V188Z" fill="#1A1B20"/>
<path fill-rule="evenodd" clip-rule="evenodd" d="M855 190H819V206H855V190ZM817 188V208H857V188H817Z" fill="#31B5F7"/>
<path d="M867 188H907V208H867V188Z" fill="#1A1B20"/>
<path fill-rule="evenodd" clip-rule="evenodd" d="M905 190H869V206H905V190ZM867 188V208H907V188H867Z" fill="#31B5F7"/>
<path d="M767 218H807V238H767V218Z" fill="#1A1B20"/>
<path fill-rule="evenodd" clip-rule="evenodd" d="M805 220H769V236H805V220ZM767 218V238H807V218H767Z" fill="#31B5F7"/>
<path d="M817 218H857V238H817V218Z" fill="#1A1B20"/>
<path fill-rule="evenodd" clip-rule="evenodd" d="M855 220H819V236H855V220ZM817 218V238H857V218H817Z" fill="#98D358"/>
<path d="M867 218H907V238H867V218Z" fill="#1A1B20"/>
<path fill-rule="evenodd" clip-rule="evenodd" d="M905 220H869V236H905V220ZM867 218V238H907V218H867Z" fill="#E8455D"/>
<path d="M767 248H807V268H767V248Z" fill="#1A1B20"/>
<path fill-rule="evenodd" clip-rule="evenodd" d="M805 250H769V266H805V250ZM767 248V268H807V248H767Z" fill="#98D358"/>
<path d="M817 248H857V268H817V248Z" fill="#1A1B20"/>
<path fill-rule="evenodd" clip-rule="evenodd" d="M855 250H819V266H855V250ZM817 248V268H857V248H817Z" fill="#31B5F7"/>
<path d="M867 248H907V268H867V248Z" fill="#1A1B20"/>
<path fill-rule="evenodd" clip-rule="evenodd" d="M905 250H869V266H905V250ZM867 248V268H907V248H867Z" fill="#31B5F7"/>
</g>
<path d="M727 158H747V168H727V158Z" fill="#1A1B20"/>
<path fill-rule="evenodd" clip-rule="evenodd" d="M746 159H728V167H746V159ZM727 158V168H747V158H727Z" fill="white"/>
<path d="M927 158H932V160H927V158Z" fill="#1A1B20"/>
<path fill-rule="evenodd" clip-rule="evenodd" d="M927 158V160H932V158H927Z" fill="#F2D348"/>
<path d="M937 158H947V160H937V158Z" fill="#1A1B20"/>
<path fill-rule="evenodd" clip-rule="evenodd" d="M937 158V160H947V158H937Z" fill="white"/>
<path d="M927 168H932V170H927V168Z" fill="#1A1B20"/>
<path fill-rule="evenodd" clip-rule="evenodd" d="M927 168V170H932V168H927Z" fill="#F2D348"/>
<path d="M937 168H947V170H937V168Z" fill="#1A1B20"/>
<path fill-rule="evenodd" clip-rule="evenodd" d="M937 168V170H947V168H937Z" fill="white"/>
<path d="M927 178H932V180H927V178Z" fill="#1A1B20"/>
<path fill-rule="evenodd" clip-rule="evenodd" d="M927 178V180H932V178H927Z" fill="#F2D348"/>
<path d="M937 178H947V180H937V178Z" fill="#1A1B20"/>
<path fill-rule="evenodd" clip-rule="evenodd" d="M937 178V180H947V178H937Z" fill="white"/>
<path d="M927 188H932V190H927V188Z" fill="#1A1B20"/>
<path fill-rule="evenodd" clip-rule="evenodd" d="M927 188V190H932V188H927Z" fill="#F2D348"/>
<path d="M937 188H947V190H937V188Z" fill="#1A1B20"/>
<path fill-rule="evenodd" clip-rule="evenodd" d="M937 188V190H947V188H937Z" fill="white"/>
<path d="M927 198H932V200H927V198Z" fill="#1A1B20"/>
<path fill-rule="evenodd" clip-rule="evenodd" d="M927 198V200H932V198H927Z" fill="#F2D348"/>
<path d="M937 198H947V200H937V198Z" fill="#1A1B20"/>
<path fill-rule="evenodd" clip-rule="evenodd" d="M937 198V200H947V198H937Z" fill="white"/>
<path d="M927 218H947V228H927V218Z" fill="#1A1B20"/>
<path fill-rule="evenodd" clip-rule="evenodd" d="M946 219H928V227H946V219ZM927 218V228H947V218H927Z" fill="#31B5F7"/>
<path d="M927 233H947V243H927V233Z" fill="#1A1B20"/>
<path fill-rule="evenodd" clip-rule="evenodd" d="M946 234H928V242H946V234ZM927 233V243H947V233H927Z" fill="#98D358"/>
<path d="M927 248H947V258H927V248Z" fill="#1A1B20"/>
<path fill-rule="evenodd" clip-rule="evenodd" d="M946 249H928V257H946V249ZM927 248V258H947V248H927Z" fill="#F2D348"/>
<path d="M1337 218H1357V228H1337V218Z" fill="#1A1B20"/>
<path fill-rule="evenodd" clip-rule="evenodd" d="M1355 220H1339V226H1355V220ZM1337 218V228H1357V218H1337Z" fill="#31B5F7"/>
<path d="M1337 203H1357V213H1337V203Z" fill="#1A1B20"/>
<path fill-rule="evenodd" clip-rule="evenodd" d="M1355 205H1339V211H1355V205ZM1337 203V213H1357V203H1337Z" fill="#31B5F7"/>
<path d="M1337 188H1357V198H1337V188Z" fill="#1A1B20"/>
<path fill-rule="evenodd" clip-rule="evenodd" d="M1355 190H1339V196H1355V190ZM1337 188V198H1357V188H1337Z" fill="#31B5F7"/>
<path d="M1337 233H1357V243H1337V233Z" fill="#1A1B20"/>
<path fill-rule="evenodd" clip-rule="evenodd" d="M1355 235H1339V241H1355V235ZM1337 233V243H1357V233H1337Z" fill="#31B5F7"/>
<path d="M1337 248H1357V258H1337V248Z" fill="#1A1B20"/>
<path fill-rule="evenodd" clip-rule="evenodd" d="M1355 250H1339V256H1355V250ZM1337 248V258H1357V248H1337Z" fill="#31B5F7"/>
<path d="M1367 218H1387V228H1367V218Z" fill="#1A1B20"/>
<path fill-rule="evenodd" clip-rule="evenodd" d="M1385 220H1369V226H1385V220ZM1367 218V228H1387V218H1367Z" fill="#98D358"/>
<path d="M1367 233H1387V243H1367V233Z" fill="#1A1B20"/>
<path fill-rule="evenodd" clip-rule="evenodd" d="M1385 235H1369V241H1385V235ZM1367 233V243H1387V233H1367Z" fill="#98D358"/>
<path d="M1367 248H1387V258H1367V248Z" fill="#1A1B20"/>
<path fill-rule="evenodd" clip-rule="evenodd" d="M1385 250H1369V256H1385V250ZM1367 248V258H1387V248H1367Z" fill="#98D358"/>
<path d="M1397 218H1417V228H1397V218Z" fill="#1A1B20"/>
<path fill-rule="evenodd" clip-rule="evenodd" d="M1415 220H1399V226H1415V220ZM1397 218V228H1417V218H1397Z" fill="#F2D348"/>
<path d="M1397 203H1417V213H1397V203Z" fill="#1A1B20"/>
<path fill-rule="evenodd" clip-rule="evenodd" d="M1415 205H1399V211H1415V205ZM1397 203V213H1417V203H1397Z" fill="#F2D348"/>
<path d="M1397 233H1417V243H1397V233Z" fill="#1A1B20"/>
<path fill-rule="evenodd" clip-rule="evenodd" d="M1415 235H1399V241H1415V235ZM1397 233V243H1417V233H1397Z" fill="#F2D348"/>
<path d="M1397 248H1417V258H1397V248Z" fill="#1A1B20"/>
<path fill-rule="evenodd" clip-rule="evenodd" d="M1415 250H1399V256H1415V250ZM1397 248V258H1417V248H1397Z" fill="#F2D348"/>
<path d="M727 188H747V190H727V188Z" fill="#1A1B20"/>
<path fill-rule="evenodd" clip-rule="evenodd" d="M727 188V190H747V188H727Z" fill="#98D358"/>
<path d="M727 198H747V200H727V198Z" fill="#1A1B20"/>
<path fill-rule="evenodd" clip-rule="evenodd" d="M727 198V200H747V198H727Z" fill="#98D358"/>
<path d="M727 208H747V210H727V208Z" fill="#1A1B20"/>
<path fill-rule="evenodd" clip-rule="evenodd" d="M727 208V210H747V208H727Z" fill="#98D358"/>
<path d="M727 218H747V220H727V218Z" fill="#1A1B20"/>
<path fill-rule="evenodd" clip-rule="evenodd" d="M727 218V220H747V218H727Z" fill="#98D358"/>
<path d="M727 228H747V230H727V228Z" fill="#1A1B20"/>
<path fill-rule="evenodd" clip-rule="evenodd" d="M727 228V230H747V228H727Z" fill="#98D358"/>
<path d="M727 238H747V240H727V238Z" fill="#1A1B20"/>
<path fill-rule="evenodd" clip-rule="evenodd" d="M727 238V240H747V238H727Z" fill="#98D358"/>
<path d="M1227 58H1381V108H1227V58Z" fill="#1A1B20"/>
<path fill-rule="evenodd" clip-rule="evenodd" d="M1380 59H1228V107H1380V59ZM1227 58V108H1381V58H1227Z" fill="#3F434E"/>
<path d="M1239 94H1369V96H1239V94Z" fill="#1A1B20"/>
<path fill-rule="evenodd" clip-rule="evenodd" d="M1239 94V96H1369V94H1239Z" fill="#3F434E"/>
<path d="M1239 69H1264V84H1239V69Z" fill="#1A1B20"/>
<path fill-rule="evenodd" clip-rule="evenodd" d="M1263 70H1240V83H1263V70ZM1239 69V84H1264V69H1239Z" fill="#3F434E"/>
<path d="M1274 69H1299V84H1274V69Z" fill="#1A1B20"/>
<path fill-rule="evenodd" clip-rule="evenodd" d="M1298 70H1275V83H1298V70ZM1274 69V84H1299V69H1274Z" fill="#3F434E"/>
<path d="M1309 69H1334V84H1309V69Z" fill="#1A1B20"/>
<path fill-rule="evenodd" clip-rule="evenodd" d="M1333 70H1310V83H1333V70ZM1309 69V84H1334V69H1309Z" fill="#3F434E"/>
<path d="M1344 69H1369V84H1344V69Z" fill="#1A1B20"/>
<path fill-rule="evenodd" clip-rule="evenodd" d="M1368 70H1345V83H1368V70ZM1344 69V84H1369V69H1344Z" fill="#3F434E"/>
<path d="M1239 94H1329V96H1239V94Z" fill="#1A1B20"/>
<path fill-rule="evenodd" clip-rule="evenodd" d="M1239 94V96H1329V94H1239Z" fill="#F2D348"/>
<path d="M187 132H189V134H187V132Z" fill="#31B5F7"/>
<path d="M187 136H189V138H187V136Z" fill="#31B5F7"/>
<path d="M187 140H189V142H187V140Z" fill="#31B5F7"/>
<path d="M187 144H189V146H187V144Z" fill="#31B5F7"/>
<path d="M187 148H189V150H187V148Z" fill="#31B5F7"/>
<path d="M187 152H189V154H187V152Z" fill="#31B5F7"/>
<path d="M187 156H189V158H187V156Z" fill="#31B5F7"/>
<path d="M187 160H189V162H187V160Z" fill="#31B5F7"/>
<path d="M187 160H189V162H187V160Z" fill="#31B5F7"/>
<path d="M187 164H189V166H187V164Z" fill="#31B5F7"/>
<path d="M187 168H189V170H187V168Z" fill="#31B5F7"/>
<path d="M187 172H189V174H187V172Z" fill="#31B5F7"/>
<path d="M187 176H189V178H187V176Z" fill="#31B5F7"/>
<path d="M187 180H189V182H187V180Z" fill="#31B5F7"/>
<path d="M187 184H189V186H187V184Z" fill="#31B5F7"/>
<path d="M187 188H189V190H187V188Z" fill="#31B5F7"/>
<path d="M191 132H193V134H191V132Z" fill="#31B5F7"/>
<path d="M195 132H197V134H195V132Z" fill="#31B5F7"/>
<path d="M199 132H201V134H199V132Z" fill="#31B5F7"/>
<path d="M203 132H205V134H203V132Z" fill="#31B5F7"/>
<path d="M207 132H209V134H207V132Z" fill="#31B5F7"/>
<path d="M211 132H213V134H211V132Z" fill="#31B5F7"/>
<path d="M215 132H217V134H215V132Z" fill="#31B5F7"/>
<path d="M219 132H221V134H219V132Z" fill="#31B5F7"/>
<path d="M223 132H225V134H223V132Z" fill="#31B5F7"/>
<path d="M227 132H229V134H227V132Z" fill="#31B5F7"/>
<path d="M231 132H233V134H231V132Z" fill="#31B5F7"/>
<path d="M235 132H237V134H235V132Z" fill="#31B5F7"/>
<path d="M239 132H241V134H239V132Z" fill="#31B5F7"/>
<path d="M243 132H245V134H243V132Z" fill="#31B5F7"/>
<path d="M247 132H249V134H247V132Z" fill="#31B5F7"/>
<path d="M251 132H253V134H251V132Z" fill="#31B5F7"/>
<path d="M255 132H257V134H255V132Z" fill="#31B5F7"/>
<path d="M259 132H261V134H259V132Z" fill="#31B5F7"/>
<path d="M263 132H265V134H263V132Z" fill="#31B5F7"/>
<path d="M267 132H269V134H267V132Z" fill="#31B5F7"/>
<path d="M259 132H261V134H259V132Z" fill="#31B5F7"/>
<path d="M263 132H265V134H263V132Z" fill="#31B5F7"/>
<path d="M267 132H269V134H267V132Z" fill="#31B5F7"/>
<path d="M271 132H273V134H271V132Z" fill="#31B5F7"/>
<path d="M275 132H277V134H275V132Z" fill="#31B5F7"/>
<path d="M327 132H329V134H327V132Z" fill="#31B5F7"/>
<path d="M331 132H333V134H331V132Z" fill="#31B5F7"/>
<path d="M335 132H337V134H335V132Z" fill="#31B5F7"/>
<path d="M339 132H341V134H339V132Z" fill="#31B5F7"/>
<path d="M343 132H345V134H343V132Z" fill="#31B5F7"/>
<path d="M347 132H349V134H347V132Z" fill="#31B5F7"/>
<path d="M351 132H353V134H351V132Z" fill="#31B5F7"/>
<path d="M355 132H357V134H355V132Z" fill="#31B5F7"/>
<path d="M359 132H361V134H359V132Z" fill="#31B5F7"/>
<path d="M363 132H365V134H363V132Z" fill="#31B5F7"/>
<path d="M367 132H369V134H367V132Z" fill="#31B5F7"/>
<path d="M371 132H373V134H371V132Z" fill="#31B5F7"/>
<path d="M375 132H377V134H375V132Z" fill="#31B5F7"/>
<path d="M379 132H381V134H379V132Z" fill="#31B5F7"/>
<path d="M383 132H385V134H383V132Z" fill="#31B5F7"/>
<path d="M387 132H389V134H387V132Z" fill="#31B5F7"/>
<path d="M391 132H393V134H391V132Z" fill="#31B5F7"/>
<path d="M395 132H397V134H395V132Z" fill="#31B5F7"/>
<path d="M399 132H401V134H399V132Z" fill="#31B5F7"/>
<path d="M403 132H405V134H403V132Z" fill="#31B5F7"/>
<path d="M395 132H397V134H395V132Z" fill="#31B5F7"/>
<path d="M399 132H401V134H399V132Z" fill="#31B5F7"/>
<path d="M403 132H405V134H403V132Z" fill="#31B5F7"/>
<path d="M407 132H409V134H407V132Z" fill="#31B5F7"/>
<path d="M411 132H413V134H411V132Z" fill="#31B5F7"/>
<path d="M415 132H417V134H415V132Z" fill="#31B5F7"/>
<path d="M419 132H421V134H419V132Z" fill="#31B5F7"/>
<path d="M423 132H425V134H423V132Z" fill="#31B5F7"/>
<path d="M427 132H429V134H427V132Z" fill="#31B5F7"/>
<path d="M431 132H433V134H431V132Z" fill="#31B5F7"/>
<path d="M435 132H437V134H435V132Z" fill="#31B5F7"/>
<path d="M439 132H441V134H439V132Z" fill="#31B5F7"/>
<path d="M443 132H445V134H443V132Z" fill="#31B5F7"/>
<path d="M447 132H449V134H447V132Z" fill="#31B5F7"/>
<path d="M451 132H453V134H451V132Z" fill="#31B5F7"/>
<path d="M455 132H457V134H455V132Z" fill="#31B5F7"/>
<path d="M459 132H461V134H459V132Z" fill="#31B5F7"/>
<path d="M463 132H465V134H463V132Z" fill="#31B5F7"/>
<path d="M467 132H469V134H467V132Z" fill="#31B5F7"/>
<path d="M471 132H473V134H471V132Z" fill="#31B5F7"/>
<path fill-rule="evenodd" clip-rule="evenodd" d="M303 148C311.284 148 318 141.284 318 133C318 124.716 311.284 118 303 118C294.716 118 288 124.716 288 133C288 141.284 294.716 148 303 148Z" fill="#1A1B20"/>
<path fill-rule="evenodd" clip-rule="evenodd" d="M303 146C310.18 146 316 140.18 316 133C316 125.82 310.18 120 303 120C295.82 120 290 125.82 290 133C290 140.18 295.82 146 303 146ZM318 133C318 141.284 311.284 148 303 148C294.716 148 288 141.284 288 133C288 124.716 294.716 118 303 118C311.284 118 318 124.716 318 133Z" fill="#31B5F7"/>
<path d="M296.855 133.802L303.409 138.39L302.262 140.028L295.708 135.44L296.855 133.802Z" fill="#31B5F7"/>
<path d="M308.653 127.413L310.292 128.56L302.262 140.028L300.623 138.881L308.653 127.413Z" fill="#31B5F7"/>
<path d="M402 300H542V330H402V300Z" fill="#1A1B20"/>
<path fill-rule="evenodd" clip-rule="evenodd" d="M541 301H403V329H541V301ZM402 300V330H542V300H402Z" fill="#3F434E"/>
<path d="M462 310H532V320H462V310Z" fill="#1A1B20"/>
<path fill-rule="evenodd" clip-rule="evenodd" d="M530 312H464V318H530V312ZM462 310V320H532V310H462Z" fill="#31B5F7"/>
<path fill-rule="evenodd" clip-rule="evenodd" d="M437 320C439.761 320 442 317.761 442 315C442 312.239 439.761 310 437 310C434.239 310 432 312.239 432 315C432 317.761 434.239 320 437 320Z" fill="#1A1B20"/>
<path fill-rule="evenodd" clip-rule="evenodd" d="M437 319C439.209 319 441 317.209 441 315C441 312.791 439.209 311 437 311C434.791 311 433 312.791 433 315C433 317.209 434.791 319 437 319ZM442 315C442 317.761 439.761 320 437 320C434.239 320 432 317.761 432 315C432 312.239 434.239 310 437 310C439.761 310 442 312.239 442 315Z" fill="#3F434E"/>
<path fill-rule="evenodd" clip-rule="evenodd" d="M417 320C419.761 320 422 317.761 422 315C422 312.239 419.761 310 417 310C414.239 310 412 312.239 412 315C412 317.761 414.239 320 417 320Z" fill="#1A1B20"/>
<path fill-rule="evenodd" clip-rule="evenodd" d="M417 318C418.657 318 420 316.657 420 315C420 313.343 418.657 312 417 312C415.343 312 414 313.343 414 315C414 316.657 415.343 318 417 318ZM422 315C422 317.761 419.761 320 417 320C414.239 320 412 317.761 412 315C412 312.239 414.239 310 417 310C419.761 310 422 312.239 422 315Z" fill="#E8455D"/>
<path d="M402 260H542V290H402V260Z" fill="#1A1B20"/>
<path fill-rule="evenodd" clip-rule="evenodd" d="M541 261H403V289H541V261ZM402 260V290H542V260H402Z" fill="#3F434E"/>
<path d="M462 270H532V280H462V270Z" fill="#1A1B20"/>
<path fill-rule="evenodd" clip-rule="evenodd" d="M530 272H464V278H530V272ZM462 270V280H532V270H462Z" fill="#31B5F7"/>
<path fill-rule="evenodd" clip-rule="evenodd" d="M437 280C439.761 280 442 277.761 442 275C442 272.239 439.761 270 437 270C434.239 270 432 272.239 432 275C432 277.761 434.239 280 437 280Z" fill="#1A1B20"/>
<path fill-rule="evenodd" clip-rule="evenodd" d="M437 279C439.209 279 441 277.209 441 275C441 272.791 439.209 271 437 271C434.791 271 433 272.791 433 275C433 277.209 434.791 279 437 279ZM442 275C442 277.761 439.761 280 437 280C434.239 280 432 277.761 432 275C432 272.239 434.239 270 437 270C439.761 270 442 272.239 442 275Z" fill="#3F434E"/>
<path fill-rule="evenodd" clip-rule="evenodd" d="M417 280C419.761 280 422 277.761 422 275C422 272.239 419.761 270 417 270C414.239 270 412 272.239 412 275C412 277.761 414.239 280 417 280Z" fill="#1A1B20"/>
<path fill-rule="evenodd" clip-rule="evenodd" d="M417 278C418.657 278 420 276.657 420 275C420 273.343 418.657 272 417 272C415.343 272 414 273.343 414 275C414 276.657 415.343 278 417 278ZM422 275C422 277.761 419.761 280 417 280C414.239 280 412 277.761 412 275C412 272.239 414.239 270 417 270C419.761 270 422 272.239 422 275Z" fill="#E8455D"/>
<path d="M471 168H473V170H471V168Z" fill="#31B5F7"/>
<path d="M471 172H473V174H471V172Z" fill="#31B5F7"/>
<path d="M471 176H473V178H471V176Z" fill="#31B5F7"/>
<path d="M471 180H473V182H471V180Z" fill="#31B5F7"/>
<path d="M471 184H473V186H471V184Z" fill="#31B5F7"/>
<path d="M471 188H473V190H471V188Z" fill="#31B5F7"/>
<path d="M471 192H473V194H471V192Z" fill="#31B5F7"/>
<path d="M471 196H473V198H471V196Z" fill="#31B5F7"/>
<path d="M471 200H473V202H471V200Z" fill="#31B5F7"/>
<path d="M471 204H473V206H471V204Z" fill="#31B5F7"/>
<path d="M471 208H473V210H471V208Z" fill="#31B5F7"/>
<path d="M471 212H473V214H471V212Z" fill="#31B5F7"/>
<path d="M471 216H473V218H471V216Z" fill="#31B5F7"/>
<path d="M471 220H473V222H471V220Z" fill="#31B5F7"/>
<path d="M471 224H473V226H471V224Z" fill="#31B5F7"/>
<path d="M471 228H473V230H471V228Z" fill="#31B5F7"/>
<path d="M471 232H473V234H471V232Z" fill="#31B5F7"/>
<path d="M471 236H473V238H471V236Z" fill="#31B5F7"/>
<path d="M471 240H473V242H471V240Z" fill="#31B5F7"/>
<path d="M471 244H473V246H471V244Z" fill="#31B5F7"/>
<path d="M471 248H473V250H471V248Z" fill="#31B5F7"/>
<path d="M471 252H473V254H471V252Z" fill="#31B5F7"/>
<path d="M471 132H473V134H471V132Z" fill="#31B5F7"/>
<path d="M471 136H473V138H471V136Z" fill="#31B5F7"/>
<path d="M471 140H473V142H471V140Z" fill="#31B5F7"/>
<path d="M471 144H473V146H471V144Z" fill="#31B5F7"/>
<path d="M471 148H473V150H471V148Z" fill="#31B5F7"/>
<path d="M471 152H473V154H471V152Z" fill="#31B5F7"/>
<path d="M471 156H473V158H471V156Z" fill="#31B5F7"/>
<path d="M471 160H473V162H471V160Z" fill="#31B5F7"/>
<path d="M471 164H473V166H471V164Z" fill="#31B5F7"/>
<path d="M471 168H473V170H471V168Z" fill="#31B5F7"/>
<path d="M471 172H473V174H471V172Z" fill="#31B5F7"/>
<path d="M471 176H473V178H471V176Z" fill="#31B5F7"/>
<path d="M471 180H473V182H471V180Z" fill="#31B5F7"/>
<path d="M471 184H473V186H471V184Z" fill="#31B5F7"/>
<path d="M471 188H473V190H471V188Z" fill="#31B5F7"/>
<path d="M471 192H473V194H471V192Z" fill="#31B5F7"/>
<path d="M471 196H473V198H471V196Z" fill="#31B5F7"/>
<path d="M471 200H473V202H471V200Z" fill="#31B5F7"/>
<path d="M471 204H473V206H471V204Z" fill="#31B5F7"/>
<path d="M471 208H473V210H471V208Z" fill="#31B5F7"/>
<path d="M471 212H473V214H471V212Z" fill="#31B5F7"/>
<path d="M471 216H473V218H471V216Z" fill="#31B5F7"/>
<path d="M68 320H308V330H68V320Z" fill="#1A1B20"/>
<path fill-rule="evenodd" clip-rule="evenodd" d="M307 321H69V329H307V321ZM68 320V330H308V320H68Z" fill="#3F434E"/>
<path d="M78 191H298V321H78V191Z" fill="#1A1B20"/>
<path fill-rule="evenodd" clip-rule="evenodd" d="M297 192H79V320H297V192ZM78 191V321H298V191H78Z" fill="#3F434E"/>
<path d="M88 201H288V311H88V201Z" fill="#1A1B20"/>
<path fill-rule="evenodd" clip-rule="evenodd" d="M287 202H89V310H287V202ZM88 201V311H288V201H88Z" fill="#3F434E"/>
<path fill-rule="evenodd" clip-rule="evenodd" d="M188 271C196.284 271 203 264.284 203 256C203 247.716 196.284 241 188 241C179.716 241 173 247.716 173 256C173 264.284 179.716 271 188 271Z" fill="#1A1B20"/>
<path fill-rule="evenodd" clip-rule="evenodd" d="M188 269C195.18 269 201 263.18 201 256C201 248.82 195.18 243 188 243C180.82 243 175 248.82 175 256C175 263.18 180.82 269 188 269ZM203 256C203 264.284 196.284 271 188 271C179.716 271 173 264.284 173 256C173 247.716 179.716 241 188 241C196.284 241 203 247.716 203 256Z" fill="#31B5F7"/>
<path d="M181.855 256.802L188.409 261.39L187.262 263.028L180.708 258.44L181.855 256.802Z" fill="#31B5F7"/>
<path d="M193.653 250.413L195.292 251.56L187.262 263.028L185.623 261.881L193.653 250.413Z" fill="#31B5F7"/>
<path d="M1712 320H1952V330H1712V320Z" fill="#1A1B20"/>
<path fill-rule="evenodd" clip-rule="evenodd" d="M1951 321H1713V329H1951V321ZM1712 320V330H1952V320H1712Z" fill="#3F434E"/>
<path d="M1722 191H1942V321H1722V191Z" fill="#1A1B20"/>
<path fill-rule="evenodd" clip-rule="evenodd" d="M1941 192H1723V320H1941V192ZM1722 191V321H1942V191H1722Z" fill="#3F434E"/>
<path d="M1732 201H1932V311H1732V201Z" fill="#1A1B20"/>
<path fill-rule="evenodd" clip-rule="evenodd" d="M1931 202H1733V310H1931V202ZM1732 201V311H1932V201H1732Z" fill="#3F434E"/>
<path fill-rule="evenodd" clip-rule="evenodd" d="M1832.36 223.828L1799.83 256.355L1832.36 288.882L1864.88 256.355L1832.36 223.828ZM1797 256.355L1832.36 291.711L1867.71 256.355L1832.36 221L1797 256.355Z" fill="#E8455D"/>
<path d="M1826.2 260.243L1836.1 250.343L1837.51 251.757L1827.62 261.657L1826.2 260.243Z" fill="#E8455D"/>
<path d="M1826.2 251.757L1827.62 250.343L1837.51 260.243L1836.1 261.657L1826.2 251.757Z" fill="#E8455D"/>
<path d="M1504 300H1644V330H1504V300Z" fill="#1A1B20"/>
<path fill-rule="evenodd" clip-rule="evenodd" d="M1643 301H1505V329H1643V301ZM1504 300V330H1644V300H1504Z" fill="#3F434E"/>
<path fill-rule="evenodd" clip-rule="evenodd" d="M1504 260H1644V290H1504V260Z" fill="#1A1B20"/>
<path fill-rule="evenodd" clip-rule="evenodd" d="M1643 261H1505V289H1643V261ZM1504 260V290H1644V260H1504Z" fill="#3F434E"/>
<path d="M1504 220H1644V250H1504V220Z" fill="#1A1B20"/>
<path fill-rule="evenodd" clip-rule="evenodd" d="M1643 221H1505V249H1643V221ZM1504 220V250H1644V220H1504Z" fill="#3F434E"/>
<path d="M1504 180H1644V210H1504V180Z" fill="#1A1B20"/>
<path fill-rule="evenodd" clip-rule="evenodd" d="M1643 181H1505V209H1643V181ZM1504 180V210H1644V180H1504Z" fill="#3F434E"/>
<path d="M1564 190H1634V200H1564V190Z" fill="#1A1B20"/>
<path fill-rule="evenodd" clip-rule="evenodd" d="M1632 192H1566V198H1632V192ZM1564 190V200H1634V190H1564Z" fill="#31B5F7"/>
<path d="M1564 230H1634V240H1564V230Z" fill="#1A1B20"/>
<path fill-rule="evenodd" clip-rule="evenodd" d="M1632 232H1566V238H1632V232ZM1564 230V240H1634V230H1564Z" fill="#31B5F7"/>
<path d="M1564 270H1634V280H1564V270Z" fill="#1A1B20"/>
<path fill-rule="evenodd" clip-rule="evenodd" d="M1632 272H1566V278H1632V272ZM1564 270V280H1634V270H1564Z" fill="#31B5F7"/>
<path d="M1564 310H1634V320H1564V310Z" fill="#1A1B20"/>
<path fill-rule="evenodd" clip-rule="evenodd" d="M1632 312H1566V318H1632V312ZM1564 310V320H1634V310H1564Z" fill="#31B5F7"/>
<path fill-rule="evenodd" clip-rule="evenodd" d="M1539 200C1541.76 200 1544 197.761 1544 195C1544 192.239 1541.76 190 1539 190C1536.24 190 1534 192.239 1534 195C1534 197.761 1536.24 200 1539 200Z" fill="#1A1B20"/>
<path fill-rule="evenodd" clip-rule="evenodd" d="M1539 199C1541.21 199 1543 197.209 1543 195C1543 192.791 1541.21 191 1539 191C1536.79 191 1535 192.791 1535 195C1535 197.209 1536.79 199 1539 199ZM1544 195C1544 197.761 1541.76 200 1539 200C1536.24 200 1534 197.761 1534 195C1534 192.239 1536.24 190 1539 190C1541.76 190 1544 192.239 1544 195Z" fill="#3F434E"/>
<path fill-rule="evenodd" clip-rule="evenodd" d="M1519 200C1521.76 200 1524 197.761 1524 195C1524 192.239 1521.76 190 1519 190C1516.24 190 1514 192.239 1514 195C1514 197.761 1516.24 200 1519 200Z" fill="#1A1B20"/>
<path fill-rule="evenodd" clip-rule="evenodd" d="M1519 198C1520.66 198 1522 196.657 1522 195C1522 193.343 1520.66 192 1519 192C1517.34 192 1516 193.343 1516 195C1516 196.657 1517.34 198 1519 198ZM1524 195C1524 197.761 1521.76 200 1519 200C1516.24 200 1514 197.761 1514 195C1514 192.239 1516.24 190 1519 190C1521.76 190 1524 192.239 1524 195Z" fill="#E8455D"/>
<path fill-rule="evenodd" clip-rule="evenodd" d="M1539 240C1541.76 240 1544 237.761 1544 235C1544 232.239 1541.76 230 1539 230C1536.24 230 1534 232.239 1534 235C1534 237.761 1536.24 240 1539 240Z" fill="#1A1B20"/>
<path fill-rule="evenodd" clip-rule="evenodd" d="M1539 239C1541.21 239 1543 237.209 1543 235C1543 232.791 1541.21 231 1539 231C1536.79 231 1535 232.791 1535 235C1535 237.209 1536.79 239 1539 239ZM1544 235C1544 237.761 1541.76 240 1539 240C1536.24 240 1534 237.761 1534 235C1534 232.239 1536.24 230 1539 230C1541.76 230 1544 232.239 1544 235Z" fill="#3F434E"/>
<path fill-rule="evenodd" clip-rule="evenodd" d="M1519 240C1521.76 240 1524 237.761 1524 235C1524 232.239 1521.76 230 1519 230C1516.24 230 1514 232.239 1514 235C1514 237.761 1516.24 240 1519 240Z" fill="#1A1B20"/>
<path fill-rule="evenodd" clip-rule="evenodd" d="M1519 239C1521.21 239 1523 237.209 1523 235C1523 232.791 1521.21 231 1519 231C1516.79 231 1515 232.791 1515 235C1515 237.209 1516.79 239 1519 239ZM1524 235C1524 237.761 1521.76 240 1519 240C1516.24 240 1514 237.761 1514 235C1514 232.239 1516.24 230 1519 230C1521.76 230 1524 232.239 1524 235Z" fill="#3F434E"/>
<path fill-rule="evenodd" clip-rule="evenodd" d="M1539 280C1541.76 280 1544 277.761 1544 275C1544 272.239 1541.76 270 1539 270C1536.24 270 1534 272.239 1534 275C1534 277.761 1536.24 280 1539 280Z" fill="#1A1B20"/>
<path fill-rule="evenodd" clip-rule="evenodd" d="M1539 278C1540.66 278 1542 276.657 1542 275C1542 273.343 1540.66 272 1539 272C1537.34 272 1536 273.343 1536 275C1536 276.657 1537.34 278 1539 278ZM1544 275C1544 277.761 1541.76 280 1539 280C1536.24 280 1534 277.761 1534 275C1534 272.239 1536.24 270 1539 270C1541.76 270 1544 272.239 1544 275Z" fill="#E8455D"/>
<path fill-rule="evenodd" clip-rule="evenodd" d="M1519 280C1521.76 280 1524 277.761 1524 275C1524 272.239 1521.76 270 1519 270C1516.24 270 1514 272.239 1514 275C1514 277.761 1516.24 280 1519 280Z" fill="#1A1B20"/>
<path fill-rule="evenodd" clip-rule="evenodd" d="M1519 279C1521.21 279 1523 277.209 1523 275C1523 272.791 1521.21 271 1519 271C1516.79 271 1515 272.791 1515 275C1515 277.209 1516.79 279 1519 279ZM1524 275C1524 277.761 1521.76 280 1519 280C1516.24 280 1514 277.761 1514 275C1514 272.239 1516.24 270 1519 270C1521.76 270 1524 272.239 1524 275Z" fill="#3F434E"/>
<path fill-rule="evenodd" clip-rule="evenodd" d="M1539 320C1541.76 320 1544 317.761 1544 315C1544 312.239 1541.76 310 1539 310C1536.24 310 1534 312.239 1534 315C1534 317.761 1536.24 320 1539 320Z" fill="#1A1B20"/>
<path fill-rule="evenodd" clip-rule="evenodd" d="M1539 319C1541.21 319 1543 317.209 1543 315C1543 312.791 1541.21 311 1539 311C1536.79 311 1535 312.791 1535 315C1535 317.209 1536.79 319 1539 319ZM1544 315C1544 317.761 1541.76 320 1539 320C1536.24 320 1534 317.761 1534 315C1534 312.239 1536.24 310 1539 310C1541.76 310 1544 312.239 1544 315Z" fill="#3F434E"/>
<path fill-rule="evenodd" clip-rule="evenodd" d="M1519 320C1521.76 320 1524 317.761 1524 315C1524 312.239 1521.76 310 1519 310C1516.24 310 1514 312.239 1514 315C1514 317.761 1516.24 320 1519 320Z" fill="#1A1B20"/>
<path fill-rule="evenodd" clip-rule="evenodd" d="M1519 319C1521.21 319 1523 317.209 1523 315C1523 312.791 1521.21 311 1519 311C1516.79 311 1515 312.791 1515 315C1515 317.209 1516.79 319 1519 319ZM1524 315C1524 317.761 1521.76 320 1519 320C1516.24 320 1514 317.761 1514 315C1514 312.239 1516.24 310 1519 310C1521.76 310 1524 312.239 1524 315Z" fill="#3F434E"/>
<path d="M1514 168H1524V170H1514V168Z" fill="#3F434E"/>
<path d="M1514 161H1524V163H1514V161Z" fill="#3F434E"/>
<path d="M1514 154H1524V156H1514V154Z" fill="#3F434E"/>
<path d="M1621 145H1623V147H1621V145Z" fill="#3F434E"/>
<path d="M1621 149H1623V151H1621V149Z" fill="#3F434E"/>
<path d="M1621 153H1623V155H1621V153Z" fill="#3F434E"/>
<path d="M1621 157H1623V159H1621V157Z" fill="#3F434E"/>
<path d="M1621 161H1623V163H1621V161Z" fill="#3F434E"/>
<path d="M1621 165H1623V167H1621V165Z" fill="#3F434E"/>
<path d="M1621 169H1623V171H1621V169Z" fill="#3F434E"/>
<path d="M1621 173H1623V175H1621V173Z" fill="#3F434E"/>
<path d="M1625 145H1627V147H1625V145Z" fill="#3F434E"/>
<path d="M1629 145H1631V147H1629V145Z" fill="#3F434E"/>
<path d="M1633 145H1635V147H1633V145Z" fill="#3F434E"/>
<path d="M1637 145H1639V147H1637V145Z" fill="#3F434E"/>
<path d="M1641 145H1643V147H1641V145Z" fill="#3F434E"/>
<path d="M1645 145H1647V147H1645V145Z" fill="#3F434E"/>
<path d="M1649 145H1651V147H1649V145Z" fill="#3F434E"/>
<path d="M1653 145H1655V147H1653V145Z" fill="#3F434E"/>
<path d="M1657 145H1659V147H1657V145Z" fill="#3F434E"/>
<path d="M1661 145H1663V147H1661V145Z" fill="#3F434E"/>
<path d="M1665 145H1667V147H1665V145Z" fill="#3F434E"/>
<path d="M1669 145H1671V147H1669V145Z" fill="#3F434E"/>
<path d="M1673 145H1675V147H1673V145Z" fill="#3F434E"/>
<path d="M1677 145H1679V147H1677V145Z" fill="#3F434E"/>
<path d="M1831 145H1833V147H1831V145Z" fill="#E8455D"/>
<path d="M1831 149H1833V151H1831V149Z" fill="#E8455D"/>
<path d="M1831 153H1833V155H1831V153Z" fill="#E8455D"/>
<path d="M1831 157H1833V159H1831V157Z" fill="#E8455D"/>
<path d="M1831 161H1833V163H1831V161Z" fill="#E8455D"/>
<path d="M1831 165H1833V167H1831V165Z" fill="#E8455D"/>
<path d="M1831 169H1833V171H1831V169Z" fill="#E8455D"/>
<path d="M1831 173H1833V175H1831V173Z" fill="#E8455D"/>
<path d="M1831 177H1833V179H1831V177Z" fill="#E8455D"/>
<path d="M1831 181H1833V183H1831V181Z" fill="#E8455D"/>
<path d="M1831 185H1833V187H1831V185Z" fill="#E8455D"/>
<path d="M1751 145H1753V147H1751V145Z" fill="#E8455D"/>
<path d="M1755 145H1757V147H1755V145Z" fill="#E8455D"/>
<path d="M1759 145H1761V147H1759V145Z" fill="#E8455D"/>
<path d="M1763 145H1765V147H1763V145Z" fill="#E8455D"/>
<path d="M1767 145H1769V147H1767V145Z" fill="#E8455D"/>
<path d="M1771 145H1773V147H1771V145Z" fill="#E8455D"/>
<path d="M1775 145H1777V147H1775V145Z" fill="#E8455D"/>
<path d="M1779 145H1781V147H1779V145Z" fill="#E8455D"/>
<path d="M1783 145H1785V147H1783V145Z" fill="#E8455D"/>
<path d="M1787 145H1789V147H1787V145Z" fill="#E8455D"/>
<path d="M1791 145H1793V147H1791V145Z" fill="#E8455D"/>
<path d="M1795 145H1797V147H1795V145Z" fill="#E8455D"/>
<path d="M1799 145H1801V147H1799V145Z" fill="#E8455D"/>
<path d="M1803 145H1805V147H1803V145Z" fill="#E8455D"/>
<path d="M1807 145H1809V147H1807V145Z" fill="#E8455D"/>
<path d="M1811 145H1813V147H1811V145Z" fill="#E8455D"/>
<path d="M1815 145H1817V147H1815V145Z" fill="#E8455D"/>
<path d="M1819 145H1821V147H1819V145Z" fill="#E8455D"/>
<path d="M1823 145H1825V147H1823V145Z" fill="#E8455D"/>
<path d="M1827 145H1829V147H1827V145Z" fill="#E8455D"/>
<path fill-rule="evenodd" clip-rule="evenodd" d="M1732.68 163.678C1742.44 153.915 1742.44 138.085 1732.68 128.322C1722.91 118.559 1707.09 118.559 1697.32 128.322C1687.56 138.085 1687.56 153.915 1697.32 163.678C1707.09 173.441 1722.91 173.441 1732.68 163.678Z" fill="#1A1B20"/>
<path fill-rule="evenodd" clip-rule="evenodd" d="M1696.62 164.385C1686.46 154.231 1686.46 137.769 1696.62 127.615C1706.77 117.462 1723.23 117.462 1733.38 127.615C1743.54 137.769 1743.54 154.231 1733.38 164.385C1723.23 174.538 1706.77 174.538 1696.62 164.385ZM1698.03 129.029C1688.66 138.402 1688.66 153.598 1698.03 162.971C1707.4 172.343 1722.6 172.343 1731.97 162.971C1741.34 153.598 1741.34 138.402 1731.97 129.029C1722.6 119.657 1707.4 119.657 1698.03 129.029Z" fill="#E8455D"/>
<path d="M1709.2 150.243L1719.1 140.343L1720.51 141.757L1710.62 151.657L1709.2 150.243Z" fill="#E8455D"/>
<path d="M1709.2 141.757L1710.62 140.343L1720.51 150.243L1719.1 151.657L1709.2 141.757Z" fill="#E8455D"/>
<path d="M0 329H2039V330H0V329Z" fill="#3F434E"/>
</svg>
